HIERARCHY
ROOT Hips
{
	OFFSET 0.000000 8.830580 0.000000
	CHANNELS 6 Xposition Yposition Zposition Zrotation Yrotation Xrotation 
	JOINT Spine
	{
		OFFSET 0.000000 0.010000 0.000000
		CHANNELS 3 Zrotation Yrotation Xrotation
		JOINT Spine1
		{
			OFFSET 0.000000 2.459130 0.000000
			CHANNELS 3 Zrotation Yrotation Xrotation
			JOINT Neck
			{
				OFFSET 0.000000 2.484630 0.000000
				CHANNELS 3 Zrotation Yrotation Xrotation
				JOINT Head_virtual
				{
					OFFSET 0.000000 0.000000 0.000000
					CHANNELS 3 Zrotation Yrotation Xrotation
					JOINT Head
					{
						OFFSET 0.000000 0.927525 0.000000
						CHANNELS 3 Zrotation Yrotation Xrotation
						End Site
						{
							OFFSET 0.000000 0.000000 0.000000
						}
					}
				}
				JOINT LeftUpArm_virtual
				{
					OFFSET 0.000000 0.000000 0.000000
					CHANNELS 3 Zrotation Yrotation Xrotation
					JOINT LeftUpArm
					{
						OFFSET 1.248820 0.000000 0.000000
						CHANNELS 3 Zrotation Yrotation Xrotation
						JOINT LeftForeArm
						{
							OFFSET 2.597580 0.000000 0.000000
							CHANNELS 3 Zrotation Yrotation Xrotation
							JOINT LeftHand
							{
								OFFSET 2.455420 0.000000 0.000000
								CHANNELS 3 Zrotation Yrotation Xrotation
								End Site
								{
									OFFSET 0.000000 0.000000 0.000000
								}
							}
						}
					}
				}
				JOINT RightUpArm_virtual
				{
					OFFSET -0.000000 -0.000000 -0.000000
					CHANNELS 3 Zrotation Yrotation Xrotation
					JOINT RightUpArm
					{
						OFFSET -1.248820 -0.000000 -0.000000
						CHANNELS 3 Zrotation Yrotation Xrotation
						JOINT RightForeArm
						{
							OFFSET -2.597580 -0.000000 -0.000000
							CHANNELS 3 Zrotation Yrotation Xrotation
							JOINT RightHand
							{
								OFFSET -2.455420 -0.000000 -0.000000
								CHANNELS 3 Zrotation Yrotation Xrotation
								End Site
								{
									OFFSET 0.000000 0.000000 0.000000
								}
							}
						}
					}
				}
			}
		}
	}
	JOINT LeftUpLeg
	{
		OFFSET 1.271939 0.000000 0.000000
		CHANNELS 3 Zrotation Yrotation Xrotation
		JOINT LeftLowLeg
		{
			OFFSET 0.000000 -4.342910 0.000000
			CHANNELS 3 Zrotation Yrotation Xrotation
			JOINT LeftFoot
			{
				OFFSET 0.000000 -4.487670 0.000000
				CHANNELS 3 Zrotation Yrotation Xrotation
				JOINT LeftToeBase
				{
					OFFSET 0.000000 0.000000 1.515070
					CHANNELS 3 Zrotation Yrotation Xrotation
					End Site
					{
						OFFSET 0.000000 0.000000 0.000000
					}
				}
			}
		}
	}
	JOINT RightUpLeg
	{
		OFFSET -1.271939 0.000000 0.000000
		CHANNELS 3 Zrotation Yrotation Xrotation
		JOINT RightLowLeg
		{
			OFFSET 0.000000 -4.342910 0.000000
			CHANNELS 3 Zrotation Yrotation Xrotation
			JOINT RightFoot
			{
				OFFSET 0.000000 -4.487670 0.000000
				CHANNELS 3 Zrotation Yrotation Xrotation
				JOINT RightToeBase
				{
					OFFSET 0.000000 0.000000 1.515070
					CHANNELS 3 Zrotation Yrotation Xrotation
					End Site
					{
						OFFSET 0.000000 0.000000 0.000000
					}
				}
			}
		}
	}
}
MOTION
Frames: 16
Frame Time: 0.041667
-22.539390 9.254478 34.164371 -171.294207 -10.826991 176.017710 3.750622 -3.475062 -21.948850 7.831166 -0.442422 31.175134 0.000000 0.000000 0.000000 2.824075 -4.982988 -4.776111 13.324687 1.539330 -64.291013 -34.557400 -2.229550 -8.242220 -34.918301 0.850625 35.921600 0.000000 -27.493000 0.000000 1.554660 7.993600 -3.277780 25.141199 -1.196470 -3.171750 41.022099 3.206260 20.980301 0.000000 24.254900 0.000000 1.063650 -1.773270 -8.064140 11.449043 11.899969 11.792553 0.000000 0.000000 -0.120884 -6.951007 6.905315 6.041787 0.000000 0.000000 -9.966830 8.245466 4.103041 7.676854 0.000000 0.000000 5.722210 13.257155 -23.363411 10.847374 0.000000 0.000000 -11.981550 
-22.542900 9.254558 34.165400 -171.309266 -10.874415 175.999574 3.743732 -3.489152 -21.941578 7.815943 -0.461785 31.219527 0.000000 0.000000 0.000000 2.863740 -5.062694 -4.817809 13.232726 1.509721 -64.300696 -34.579700 -2.235540 -8.249240 -34.921799 0.832597 35.921200 0.000000 -27.506701 0.000000 1.551820 7.994090 -3.314200 25.116800 -1.213100 -3.203780 41.029202 3.178610 21.007799 0.000000 24.270100 0.000000 1.031830 -1.795690 -8.169660 11.402792 11.811765 11.788790 0.000000 0.000000 -0.107277 -6.927549 6.939926 6.038777 0.000000 0.000000 -9.967590 8.327629 4.740701 7.661006 0.000000 0.000000 5.834310 13.508587 -23.936501 10.569877 0.000000 0.000000 -12.057260 
-22.546427 9.254427 34.167203 -171.329421 -10.870863 176.010147 3.757087 -3.444526 -21.957024 7.760748 -0.465481 31.262249 0.000000 0.000000 0.000000 2.738543 -4.982776 -4.812636 13.320487 1.475088 -64.292409 -34.582001 -2.262940 -8.265650 -34.921501 0.831835 35.915699 0.000000 -27.527800 0.000000 1.539130 8.001820 -3.316460 25.116699 -1.226700 -3.217030 41.028000 3.188720 21.029900 0.000000 24.224600 0.000000 1.114470 -1.817250 -8.240640 11.352298 11.809119 11.767610 0.000000 0.000000 -0.092945 -6.919309 6.966097 6.028354 0.000000 0.000000 -9.961960 8.256155 4.570021 7.669088 0.000000 0.000000 5.785740 13.478609 -23.795474 10.617819 0.000000 0.000000 -12.076570 
-22.550418 9.254288 34.168631 -171.372535 -10.910890 176.020289 3.774740 -3.382750 -21.966360 7.586242 -0.500983 31.291031 0.000000 0.000000 0.000000 2.774224 -4.960772 -4.802706 13.296696 1.525589 -64.274221 -34.534801 -2.244740 -8.305920 -34.922901 0.812047 35.935699 0.000000 -27.551201 0.000000 1.565360 8.031310 -3.269480 25.204500 -1.208510 -3.229350 40.990799 3.177180 21.054300 0.000000 24.161501 0.000000 1.235880 -1.844130 -8.210900 11.279932 11.791684 11.724623 0.000000 0.000000 -0.045082 -6.887231 6.959915 6.023347 0.000000 0.000000 -9.950540 8.138406 4.256252 7.689635 0.000000 0.000000 5.730100 13.413245 -23.554519 10.691950 0.000000 0.000000 -11.941550 
-22.556414 9.253090 34.169812 -171.415385 -10.959003 176.009517 3.918709 -3.200497 -21.863454 7.048403 -0.659740 31.199301 0.000000 0.000000 0.000000 2.906603 -4.888111 -4.800370 13.257713 1.715928 -64.284697 -34.412998 -1.991970 -8.409960 -34.862801 0.713935 36.016499 0.000000 -27.578699 0.000000 1.584880 8.011700 -3.254280 25.495899 -1.119210 -3.140550 40.883499 3.191090 21.087400 0.000000 24.116400 0.000000 1.243270 -1.837910 -8.241050 11.195078 11.748504 11.701390 0.000000 0.000000 0.006959 -6.867354 6.976418 5.984730 0.000000 0.000000 -9.960110 8.077899 4.317670 7.712120 0.000000 0.000000 5.743380 13.549832 -23.619972 10.565271 0.000000 0.000000 -11.933830 
-22.563234 9.253342 34.172921 -171.466082 -11.090909 176.003187 3.954635 -3.124087 -21.878389 6.798914 -0.730209 31.265225 0.000000 0.000000 0.000000 3.019838 -4.882194 -4.797335 13.273763 1.787714 -64.230405 -34.318298 -2.028800 -8.429320 -34.890202 0.680702 36.011101 0.000000 -27.601000 0.000000 1.601640 7.988990 -3.279100 25.618200 -1.124620 -3.167820 40.839600 3.216700 21.050301 0.000000 24.031601 0.000000 1.323350 -1.905880 -8.251540 11.083738 11.652055 11.610595 0.000000 0.000000 0.107627 -6.779064 6.992008 5.981383 0.000000 0.000000 -9.982310 7.978934 4.216784 7.734806 0.000000 0.000000 5.719080 13.639150 -23.614345 10.530426 0.000000 0.000000 -11.951780 
-22.570978 9.253378 34.175323 -171.520524 -11.192838 175.993284 3.983369 -3.041612 -21.882115 6.607333 -0.768179 31.319133 0.000000 0.000000 0.000000 3.093859 -4.870144 -4.788167 13.355459 1.820855 -64.177023 -34.260899 -2.079370 -8.415970 -34.907101 0.650862 35.971298 0.000000 -27.644699 0.000000 1.599280 7.967440 -3.229780 25.695499 -1.158260 -3.236260 40.819599 3.203720 21.030100 0.000000 23.955601 0.000000 1.261380 -1.896870 -8.098370 10.974398 11.600114 11.550672 0.000000 0.000000 0.188594 -6.710482 6.985251 5.980773 0.000000 0.000000 -9.997140 7.932848 4.465352 7.748454 0.000000 0.000000 5.752170 13.793058 -23.880456 10.362904 0.000000 0.000000 -11.873100 
-22.580346 9.253247 34.178868 -171.576805 -11.324334 175.987826 4.054251 -2.923314 -21.873831 6.285854 -0.856426 31.355899 0.000000 0.000000 0.000000 3.269583 -4.894907 -4.757317 13.395640 1.909816 -64.144997 -34.160400 -2.080140 -8.467180 -34.926998 0.630643 35.961899 0.000000 -27.701200 0.000000 1.629980 7.970670 -3.205830 25.836901 -1.112930 -3.316560 40.777802 3.139060 21.006901 0.000000 23.858700 0.000000 1.306830 -1.910670 -8.337300 10.846801 11.522172 11.469888 0.000000 0.000000 0.276152 -6.650283 6.977769 5.966733 0.000000 0.000000 -9.996340 7.804981 4.312763 7.790927 0.000000 0.000000 5.687990 13.867141 -23.826795 10.347594 0.000000 0.000000 -11.884320 
-22.591123 9.253269 34.182743 -171.636682 -11.478447 175.970249 4.120356 -2.800129 -21.885076 5.949576 -0.948087 31.438995 0.000000 0.000000 0.000000 3.519357 -4.947752 -4.752333 13.416172 2.019334 -64.078811 -34.001900 -2.109220 -8.579240 -34.993999 0.666151 35.986900 0.000000 -27.796000 0.000000 1.696500 7.923600 -3.409580 25.994499 -1.081900 -3.318080 40.714001 3.178310 20.960699 0.000000 23.740200 0.000000 1.238900 -1.828770 -7.856440 10.707305 11.447285 11.384704 0.000000 0.000000 0.382931 -6.538921 6.973884 5.957735 0.000000 0.000000 -10.023090 7.672907 4.181571 7.847521 0.000000 0.000000 5.626260 13.949467 -23.814564 10.317728 0.000000 0.000000 -11.870570 
-22.603581 9.253129 34.187512 -171.704721 -11.703695 175.957863 4.187933 -2.712453 -21.864558 5.561364 -1.082892 31.486066 0.000000 0.000000 0.000000 3.712772 -4.970762 -4.758358 13.496117 2.113077 -64.043120 -33.880402 -2.093320 -8.623870 -35.004902 0.646347 35.957401 0.000000 -27.919500 0.000000 1.726750 7.914170 -3.407540 26.208401 -1.054330 -3.328450 40.609200 3.220830 20.958599 0.000000 23.649700 0.000000 1.321920 -1.877710 -8.026250 10.546879 11.360063 11.235498 0.000000 0.000000 0.563005 -6.397142 6.930670 5.916284 0.000000 0.000000 -10.023860 7.533643 4.096994 7.901671 0.000000 0.000000 5.566790 14.108184 -23.871282 10.240494 0.000000 0.000000 -11.859110 
-22.617494 9.253044 34.192428 -171.759899 -11.942436 175.947102 4.224355 -2.683753 -21.872126 5.293271 -1.199582 31.590522 0.000000 0.000000 0.000000 3.923049 -5.026472 -4.808662 13.608085 2.164995 -63.968313 -33.778702 -2.109850 -8.674270 -35.066601 0.625848 35.931301 0.000000 -28.038099 0.000000 1.712480 7.953470 -3.265960 26.353201 -1.006820 -3.380850 40.501099 3.227890 20.927799 0.000000 23.608801 0.000000 1.448050 -1.988420 -7.943240 10.380946 11.231794 11.083694 0.000000 0.000000 0.730246 -6.282328 6.919896 5.874410 0.000000 0.000000 -10.035320 7.381845 3.894172 7.964227 0.000000 0.000000 5.478660 14.186776 -23.857119 10.234802 0.000000 0.000000 -11.864900 
-22.632993 9.253736 34.195581 -171.814734 -12.259885 175.910546 4.209950 -2.732516 -21.926121 5.098430 -1.314169 31.769333 0.000000 0.000000 0.000000 4.173929 -5.107052 -4.854230 13.835481 2.180710 -63.853501 -33.658901 -2.163270 -8.683990 -35.157101 0.605558 35.919498 0.000000 -28.199100 0.000000 1.740890 7.961530 -3.283890 26.408100 -0.980909 -3.437260 40.473400 3.288340 20.966299 0.000000 23.456499 0.000000 1.400910 -1.959700 -8.210420 10.199815 10.981276 10.968153 0.000000 0.000000 0.848008 -6.135769 6.948375 5.877196 0.000000 0.000000 -10.046160 7.229763 3.662906 8.087471 0.000000 0.000000 5.343270 14.286348 -23.899783 10.231490 0.000000 0.000000 -11.823710 
-22.647713 9.254226 34.200514 -171.847146 -12.497383 175.876888 4.191630 -2.757977 -21.901379 4.969848 -1.378301 31.857801 0.000000 0.000000 0.000000 4.507228 -5.279612 -4.805762 14.011818 2.192629 -63.800526 -33.637001 -2.197640 -8.669950 -35.138802 0.554586 35.951302 0.000000 -28.336500 0.000000 1.706680 7.801360 -3.586790 26.465099 -0.967296 -3.452550 40.442699 3.344200 21.054100 0.000000 23.345400 0.000000 0.925872 -1.950110 -8.073100 10.071529 10.900697 10.865675 0.000000 0.000000 0.966537 -6.020835 6.868006 5.864337 0.000000 0.000000 -10.043150 7.115381 3.585429 8.130803 0.000000 0.000000 5.334680 14.439851 -23.979527 10.182639 0.000000 0.000000 -11.853210 
-22.665054 9.254805 34.207708 -171.894562 -12.696615 175.841917 4.196986 -2.692439 -21.886607 4.735644 -1.436913 32.001159 0.000000 0.000000 0.000000 4.893071 -5.457264 -4.718875 14.466517 2.179484 -63.767689 -33.546799 -2.259550 -8.675370 -35.130798 0.502600 35.975899 0.000000 -28.513399 0.000000 1.786410 7.894190 -3.336300 26.528200 -0.910687 -3.449180 40.428501 3.449690 21.215300 0.000000 23.245701 0.000000 0.734504 -2.247390 -8.080740 9.914049 10.856024 10.794233 0.000000 0.000000 1.037040 -5.861484 6.803605 5.892218 0.000000 0.000000 -10.091750 6.959574 3.438783 8.164681 0.000000 0.000000 5.326410 14.538271 -24.003486 10.170594 0.000000 0.000000 -11.858350 
-22.682862 9.254972 34.214807 -171.900224 -12.843717 175.810809 4.247047 -2.502509 -21.886350 4.434420 -1.461472 32.155916 0.000000 0.000000 0.000000 5.667419 -5.902488 -4.645094 14.935305 2.126503 -63.593655 -33.393501 -2.367590 -8.728900 -35.116798 0.485073 36.065899 0.000000 -28.686800 0.000000 1.835970 7.878930 -3.022730 26.624901 -0.848977 -3.442350 40.499802 3.462870 21.221800 0.000000 23.182699 0.000000 0.026605 -2.294870 -8.334080 9.773157 10.701882 10.749434 0.000000 0.000000 1.062610 -5.734981 6.864956 5.872076 0.000000 0.000000 -10.074390 6.869779 3.484990 8.149172 0.000000 0.000000 5.388460 14.640765 -24.159730 10.130732 0.000000 0.000000 -11.995860 
-22.702009 9.254884 34.222995 -171.914767 -12.963709 175.791766 4.347938 -2.165230 -21.940678 3.914165 -1.496445 32.359782 0.000000 0.000000 0.000000 6.621646 -6.463665 -4.605379 15.949615 1.852394 -63.141163 -33.085800 -2.525090 -8.814520 -35.130699 0.516937 36.047199 0.000000 -28.840000 0.000000 1.980200 7.891550 -2.815210 26.813000 -0.698858 -3.427680 40.589500 3.476100 21.134899 0.000000 23.054701 0.000000 -0.584975 -2.311800 -8.177760 9.620547 10.588890 10.702548 0.000000 0.000000 1.083940 -5.621396 6.902827 5.854685 0.000000 0.000000 -10.065850 6.742171 3.449263 8.095874 0.000000 0.000000 5.502990 14.734847 -24.192804 10.103761 0.000000 0.000000 -11.844260 
